{
  "accessors": [
    {
      "bufferView": 2,
      "componentType": 5126,
      "count": 398,
      "max": [
        22.720788955688477,
        77.26895141601563,
        245.36398315429688
      ],
      "min": [
        -23.27762222290039,
        -80.91332244873047,
        -240.8473663330078
      ],
      "type": "VEC3"
    },
    {
      "bufferView": 2,
      "byteOffset": 4776,
      "componentType": 5126,
      "count": 398,
      "max": [
        1.0,
        1.0,
        1.0
      ],
      "min": [
        -1.0,
        -1.0,
        -1.0
      ],
      "type": "VEC3"
    },
    {
      "bufferView": 1,
      "componentType": 5126,
      "count": 398,
      "max": [
        0.875,
        1.0
      ],
      "min": [
        0.125,
        0.0
      ],
      "type": "VEC2"
    },
    {
      "bufferView": 0,
      "componentType": 5125,
      "count": 936,
      "type": "SCALAR"
    },
    {
      "bufferView": 2,
      "byteOffset": 9552,
      "componentType": 5126,
      "count": 62,
      "max": [
        13.300000190734863,
        15.049613952636719,
        245.36398315429688
      ],
      "min": [
        -13.300004959106445,
        -108.16756439208984,
        -107.84050750732422
      ],
      "type": "VEC3"
    },
    {
      "bufferView": 2,
      "byteOffset": 10296,
      "componentType": 5126,
      "count": 62,
      "max": [
        1.0,
        0.2238810807466507,
        1.0
      ],
      "min": [
        -1.0,
        -1.0,
        -1.0
      ],
      "type": "VEC3"
    },
    {
      "bufferView": 1,
      "byteOffset": 3184,
      "componentType": 5126,
      "count": 62,
      "max": [
        0.625,
        0.7730010747909546
      ],
      "min": [
        0.375,
        0.16512402892112732
      ],
      "type": "VEC2"
    },
    {
      "bufferView": 0,
      "byteOffset": 3744,
      "componentType": 5125,
      "count": 120,
      "type": "SCALAR"
    },
    {
      "bufferView": 2,
      "byteOffset": 11040,
      "componentType": 5126,
      "count": 56,
      "max": [
        22.720788955688477,
        56.229244232177734,
        245.36398315429688
      ],
      "min": [
        -23.27762222290039,
        4.96043062210083,
        -240.8473663330078
      ],
      "type": "VEC3"
    },
    {
      "bufferView": 2,
      "byteOffset": 11712,
      "componentType": 5126,
      "count": 56,
      "max": [
        1.0,
        1.0,
        1.0
      ],
      "min": [
        -1.0,
        -0.9998985528945923,
        -0.11753223091363907
      ],
      "type": "VEC3"
    },
    {
      "bufferView": 1,
      "byteOffset": 3680,
      "componentType": 5126,
      "count": 56,
      "max": [
        0.625,
        0.5848759412765503
      ],
      "min": [
        0.375,
        0.16512402892112732
      ],
      "type": "VEC2"
    },
    {
      "bufferView": 0,
      "byteOffset": 4224,
      "componentType": 5125,
      "count": 120,
      "type": "SCALAR"
    },
    {
      "bufferView": 2,
      "byteOffset": 12384,
      "componentType": 5126,
      "count": 270,
      "max": [
        5.7965087890625,
        95.23373413085938,
        77.49264526367188
      ],
      "min": [
        -17.5000057220459,
        24.04961585998535,
        -320.9171142578125
      ],
      "type": "VEC3"
    },
    {
      "bufferView": 2,
      "byteOffset": 15624,
      "componentType": 5126,
      "count": 270,
      "max": [
        1.0,
        1.0,
        1.0
      ],
      "min": [
        -1.0,
        -1.0,
        -1.0
      ],
      "type": "VEC3"
    },
    {
      "bufferView": 1,
      "byteOffset": 4128,
      "componentType": 5126,
      "count": 270,
      "max": [
        1.0,
        1.0
      ],
      "min": [
        0.0,
        0.0
      ],
      "type": "VEC2"
    },
    {
      "bufferView": 0,
      "byteOffset": 4704,
      "componentType": 5125,
      "count": 591,
      "type": "SCALAR"
    },
    {
      "bufferView": 2,
      "byteOffset": 18864,
      "componentType": 5126,
      "count": 16,
      "max": [
        11.899999618530273,
        -15.380087852478027,
        103.37081909179688
      ],
      "min": [
        -11.900005340576172,
        -76.22374725341797,
        52.86466979980469
      ],
      "type": "VEC3"
    },
    {
      "bufferView": 2,
      "byteOffset": 19056,
      "componentType": 5126,
      "count": 16,
      "max": [
        1.0,
        8.13475597993829e-09,
        0.0
      ],
      "min": [
        -1.0,
        -9.038595649712988e-09,
        0.0
      ],
      "type": "VEC3"
    },
    {
      "bufferView": 1,
      "byteOffset": 6288,
      "componentType": 5126,
      "count": 16,
      "max": [
        0.625,
        1.0
      ],
      "min": [
        0.375,
        0.7730010747909546
      ],
      "type": "VEC2"
    },
    {
      "bufferView": 0,
      "byteOffset": 7068,
      "componentType": 5125,
      "count": 36,
      "type": "SCALAR"
    }
  ],
  "asset": {
    "extras": {
      "author": "rustbucket (https://sketchfab.com/rustbucket)",
      "license": "CC-BY-4.0 (http://creativecommons.org/licenses/by/4.0/)",
      "source": "https://sketchfab.com/3d-models/lowpoly-gun-27d6cadeb51c4ae5867dfd8560d1e940",
      "title": "Lowpoly gun"
    },
    "generator": "Sketchfab-12.65.0",
    "version": "2.0"
  },
  "bufferViews": [
    {
      "buffer": 0,
      "byteLength": 7212,
      "name": "floatBufferViews",
      "target": 34963
    },
    {
      "buffer": 0,
      "byteLength": 6416,
      "byteOffset": 7212,
      "byteStride": 8,
      "name": "floatBufferViews",
      "target": 34962
    },
    {
      "buffer": 0,
      "byteLength": 19248,
      "byteOffset": 13628,
      "byteStride": 12,
      "name": "floatBufferViews",
      "target": 34962
    }
  ],
  "buffers": [
    {
      "byteLength": 32876,
      "uri": "scene.bin"
    }
  ],
  "materials": [
    {
      "doubleSided": true,
      "name": "GrayBody",
      "pbrMetallicRoughness": {
        "baseColorFactor": [
          0.087,
          0.087,
          0.087,
          1.0
        ],
        "metallicFactor": 0.41634908536585363,
        "roughnessFactor": 0.4468368902439025
      }
    },
    {
      "doubleSided": true,
      "name": "phong5",
      "pbrMetallicRoughness": {
        "baseColorFactor": [
          0.19802327142925605,
          0.19802327142925605,
          0.19802327142925605,
          1.0
        ],
        "metallicFactor": 0.5443978658536586
      }
    },
    {
      "doubleSided": true,
      "name": "CamoGreen",
      "pbrMetallicRoughness": {
        "baseColorFactor": [
          0.018978633662403124,
          0.0314744365057738,
          0.005474099365133065,
          1.0
        ],
        "metallicFactor": 0.0
      }
    },
    {
      "doubleSided": true,
      "name": "BulletArea",
      "pbrMetallicRoughness": {
        "baseColorFactor": [
          0.004,
          0.004,
          0.004,
          1.0
        ],
        "metallicFactor": 0.0
      }
    },
    {
      "doubleSided": true,
      "name": "Wood",
      "pbrMetallicRoughness": {
        "baseColorFactor": [
          0.182,
          0.0425243,
          0.0,
          1.0
        ],
        "metallicFactor": 0.0
      }
    }
  ],
  "meshes": [
    {
      "name": "GunBody1_GrayBody_0",
      "primitives": [
        {
          "attributes": {
            "NORMAL": 1,
            "POSITION": 0,
            "TEXCOORD_0": 2
          },
          "indices": 3,
          "material": 0,
          "mode": 4
        }
      ]
    },
    {
      "name": "GunBody1_phong5_0",
      "primitives": [
        {
          "attributes": {
            "NORMAL": 5,
            "POSITION": 4,
            "TEXCOORD_0": 6
          },
          "indices": 7,
          "material": 1,
          "mode": 4
        }
      ]
    },
    {
      "name": "GunBody1_CamoGreen_0",
      "primitives": [
        {
          "attributes": {
            "NORMAL": 9,
            "POSITION": 8,
            "TEXCOORD_0": 10
          },
          "indices": 11,
          "material": 2,
          "mode": 4
        }
      ]
    },
    {
      "name": "GunBody1_BulletArea_0",
      "primitives": [
        {
          "attributes": {
            "NORMAL": 13,
            "POSITION": 12,
            "TEXCOORD_0": 14
          },
          "indices": 15,
          "material": 3,
          "mode": 4
        }
      ]
    },
    {
      "name": "GunBody1_Wood_0",
      "primitives": [
        {
          "attributes": {
            "NORMAL": 17,
            "POSITION": 16,
            "TEXCOORD_0": 18
          },
          "indices": 19,
          "material": 4,
          "mode": 4
        }
      ]
    }
  ],
  "nodes": [
    {
      "children": [
        1
      ],
      "matrix": [
        1.0,
        0.0,
        0.0,
        0.0,
        0.0,
        2.220446049250313e-16,
        -1.0,
        0.0,
        0.0,
        1.0,
        2.220446049250313e-16,
        0.0,
        0.0,
        0.0,
        0.0,
        1.0
      ],
      "name": "Sketchfab_model"
    },
    {
      "children": [
        2
      ],
      "matrix": [
        1.0,
        0.0,
        0.0,
        0.0,
        0.0,
        0.0,
        1.0,
        0.0,
        0.0,
        -1.0,
        0.0,
        0.0,
        0.0,
        0.0,
        0.0,
        1.0
      ],
      "name": "5e0d4744b63a486ab22f42728d56a576.fbx"
    },
    {
      "children": [
        3
      ],
      "name": "RootNode"
    },
    {
      "children": [
        4,
        5,
        6,
        7,
        8
      ],
      "name": "GunBody1"
    },
    {
      "mesh": 0,
      "name": "GunBody1_GrayBody_0"
    },
    {
      "mesh": 1,
      "name": "GunBody1_phong5_0"
    },
    {
      "mesh": 2,
      "name": "GunBody1_CamoGreen_0"
    },
    {
      "mesh": 3,
      "name": "GunBody1_BulletArea_0"
    },
    {
      "mesh": 4,
      "name": "GunBody1_Wood_0"
    }
  ],
  "scene": 0,
  "scenes": [
    {
      "name": "Sketchfab_Scene",
      "nodes": [
        0
      ]
    }
  ]
}
